<svg width="68" height="17" viewBox="0 0 68 17" fill="none" xmlns="http://www.w3.org/2000/svg">
<g id="SVG">
<path id="Vector" d="M24.6597 5.34862C24.6085 5.32965 24.6024 5.37253 24.6009 5.41417C24.5925 5.67188 24.6488 5.96592 24.841 6.11816C25.2246 6.43117 25.9642 6.61926 26.0434 7.70219V11.7923C26.0483 11.8492 26.0409 11.9065 26.0218 11.9606C26.0026 12.0146 25.9721 12.0642 25.9322 12.1063C25.8922 12.1483 25.8437 12.1819 25.7896 12.2048C25.7356 12.2278 25.6772 12.2396 25.6182 12.2396C25.5591 12.2396 25.5008 12.2278 25.4467 12.2048C25.3927 12.1819 25.3441 12.1483 25.3042 12.1063C25.2642 12.0642 25.2337 12.0146 25.2145 11.9606C25.1954 11.9065 25.188 11.8492 25.1929 11.7923L25.1935 8.47295C25.1935 8.22634 25.0238 8.02591 24.8145 8.02591C24.6052 8.02591 24.4355 8.22605 24.4355 8.47295V11.7945C24.4404 11.8514 24.433 11.9087 24.4139 11.9628C24.3947 12.0168 24.3642 12.0664 24.3242 12.1084C24.2843 12.1505 24.2357 12.184 24.1817 12.207C24.1276 12.23 24.0693 12.2418 24.0102 12.2418C23.9512 12.2418 23.8928 12.23 23.8388 12.207C23.7847 12.184 23.7362 12.1505 23.6962 12.1084C23.6563 12.0664 23.6257 12.0168 23.6066 11.9628C23.5874 11.9087 23.5801 11.8514 23.585 11.7945V8.47295C23.585 8.22634 23.4153 8.02591 23.206 8.02591C22.9967 8.02591 22.827 8.22605 22.827 8.47295V11.7923C22.8319 11.8492 22.8245 11.9065 22.8054 11.9606C22.7862 12.0146 22.7557 12.0642 22.7157 12.1063C22.6758 12.1483 22.6272 12.1819 22.5732 12.2048C22.5191 12.2278 22.4607 12.2396 22.4017 12.2396C22.3427 12.2396 22.2843 12.2278 22.2303 12.2048C22.1762 12.1819 22.1277 12.1483 22.0877 12.1063C22.0478 12.0642 22.0172 12.0146 21.9981 11.9606C21.9789 11.9065 21.9716 11.8492 21.9765 11.7923C21.9765 11.7923 21.9733 8.62832 21.9765 7.85879C22.0352 6.50753 22.9132 6.42254 23.1905 6.11825C23.3603 5.94284 23.4587 5.71371 23.4672 5.47342C23.4757 5.23313 23.3938 4.99803 23.2367 4.81177C23.1671 4.73193 23.0765 4.67177 22.9745 4.63761C22.6305 4.52683 21.9231 4.43359 21.367 4.43359C20.0148 4.43369 18.6997 4.86147 17.6218 5.65182C16.544 6.44216 15.7624 7.55179 15.3961 8.81178C15.0297 10.0718 15.0987 11.4131 15.5925 12.6317C16.0863 13.8502 16.9779 14.8792 18.1315 15.562C18.3582 15.7188 18.3304 15.6265 18.3403 15.2937C18.3527 14.8821 18.1866 14.8355 18.047 14.7766C17.232 14.4328 16.6997 13.4075 16.6997 12.2541C16.6997 10.7501 17.6495 9.53074 18.8211 9.53074C19.9927 9.53074 20.9424 10.7501 20.9424 12.2541C20.9424 13.3905 20.4041 14.3531 19.6323 14.7587C19.3634 14.8999 19.242 14.9241 19.2812 15.4309C19.2921 15.5718 19.2812 16.0766 19.9745 16.2907C20.412 16.4258 20.8882 16.4425 21.367 16.4425C22.7135 16.4425 24.0234 16.0183 25.0989 15.2342C26.1744 14.45 26.9572 13.3483 27.329 12.0956C27.7007 10.8428 27.6413 9.50699 27.1597 8.28979C26.6781 7.0726 25.8008 6.04042 24.6597 5.34862Z" fill="#0085E9"/>
<path id="Vector_2" d="M55.272 8.35436C55.272 12.8865 51.8198 16.5259 47.2799 16.5259C43.3311 16.5259 39.4297 13.6418 39.4297 8.88079C39.4297 3.73034 43.4494 0.526146 47.3272 0.57177C51.536 0.57196 55.272 3.75357 55.272 8.35436ZM47.1616 3.50184C44.6789 3.50184 42.7636 5.65346 42.7636 8.62906C42.7636 11.6276 44.8207 13.5274 47.3983 13.5274C49.9283 13.5274 51.9382 11.1241 51.9382 8.40018C51.9145 5.35581 49.668 3.50184 47.1616 3.50184Z" fill="white"/>
<path id="Vector_3" d="M67.1413 2.74578C67.1413 3.34088 66.5739 4.18753 65.7462 4.18753C65.297 4.18753 64.7532 3.98151 64.3984 3.84416C63.6745 3.54057 62.8937 3.38474 62.1048 3.38641C60.8044 3.38641 59.6221 4.18753 59.6221 5.21753C59.6221 6.33915 60.9699 6.72823 62.5541 7.02578C65.3206 7.55221 67.685 8.55935 67.685 11.5123C67.685 14.6482 65.155 16.4335 61.8452 16.4793C59.9535 16.5022 58.1805 16.0215 57.2105 15.5637C56.5011 15.2433 56.1465 14.7626 56.1465 14.0988C56.1465 13.2519 56.7612 12.4736 57.5416 12.4736C58.0855 12.4736 58.4401 12.6338 58.842 12.7941C59.5514 13.0917 60.4972 13.5037 61.7977 13.5037C63.3111 13.5037 64.3514 12.7713 64.3514 11.6038C64.3514 10.4364 63.0273 10.0016 61.5376 9.70402C58.7474 9.17759 56.312 8.07892 56.312 5.44659C56.312 2.65406 59.0075 0.525391 62.1523 0.525391C63.6893 0.525391 65.1317 0.822941 66.2666 1.34937C66.8339 1.60148 67.1413 2.08182 67.1413 2.74578Z" fill="white"/>
<path id="Vector_4" d="M14.2683 10.4371C14.2671 9.52506 14.4541 8.62192 14.8182 7.78071C14.5501 7.5746 14.168 7.46002 13.6291 7.46002H9.23082C8.26136 7.48287 7.83572 8.0094 7.83572 8.78794C7.83572 9.54334 8.28498 10.1159 9.13617 10.1384H12.1393C12.1157 11.9009 10.8151 13.5721 8.37973 13.5721C5.54229 13.5721 3.62748 11.6036 3.62748 8.33047C3.62748 5.46926 6.01565 3.31774 8.45116 3.31774C9.728 3.31774 10.6029 3.6611 11.194 3.9817C11.5487 4.18772 12.1162 4.43946 12.6601 4.43946C13.4636 4.43946 13.9605 3.63834 13.9605 2.95161C13.9605 2.35651 13.6058 1.99029 12.9438 1.62368C11.9979 1.0743 10.4373 0.547875 8.49839 0.547875C7.41926 0.545332 6.35033 0.749962 5.35343 1.14993C4.35653 1.54989 3.45146 2.13725 2.69058 2.87802C1.92971 3.61878 1.32813 4.49826 0.920651 5.46555C0.513174 6.43284 0.30789 7.46875 0.316677 8.51335C0.316677 13.2285 3.72164 16.4788 7.9778 16.4788C11.3703 16.4788 13.6387 15.0243 14.7032 12.8112C14.4145 12.0509 14.2673 11.2471 14.2683 10.4371Z" fill="white"/>
<path id="Vector_5" d="M36.8994 1.69318C35.7408 0.98359 34.2511 0.640321 32.6432 0.66318C31.4373 0.686039 29.8531 0.686039 29.0962 0.754712C28.3159 0.823384 27.772 1.18961 27.5356 1.87634C27.2878 2.85748 27.4691 5.74933 27.4866 6.95091C28.1361 8.02028 28.4748 9.23976 28.467 10.4802C28.4591 11.7208 28.1049 12.9361 27.4418 13.9977C27.441 14.3543 27.4406 14.7222 27.4406 15.106C27.4406 15.9071 27.9844 16.4107 29.0722 16.4107C30.018 16.4107 30.7983 16.0673 30.7983 15.0373C30.7983 13.5724 30.751 12.4051 30.7746 11.1691H31.8387C32.9027 11.1691 34.2981 11.1462 35.0308 11.0089C37.4663 10.4824 39.0269 8.26214 39.0741 5.97318C39.146 3.93633 38.2944 2.56297 36.8994 1.69318ZM35.8831 5.81326C35.8595 6.86611 35.221 7.96488 34.157 8.21661C33.5422 8.37682 32.7619 8.35396 31.8397 8.35396H30.8231C30.7993 6.13367 30.7521 4.78317 30.7521 3.47857C31.1539 3.45571 32.3127 3.45571 32.6674 3.45571C33.4004 3.45571 34.0152 3.50153 34.6063 3.77613C35.2441 4.05072 35.9062 4.69163 35.8831 5.81326Z" fill="white"/>
</g>
</svg>
