<svg width="14" height="15" viewBox="0 0 14 15" fill="none" xmlns="http://www.w3.org/2000/svg">
<g id="Crab">
<path id="Combined Shape" d="M1.94444 5.11111L3.4282 5.3584C3.56116 5.38056 3.69572 5.3917 3.83052 5.3917C5.1821 5.3917 6.27778 4.29603 6.27778 2.94444L4.83333 3.66667V1.5L4.68915 1.50354C3.16064 1.57867 1.94444 2.84175 1.94444 4.38889V5.11111ZM1.94444 5.11111V5.57298C1.94444 6.21011 2.15507 6.82936 2.54353 7.33437L3.38889 8.43333M3.02778 8.72222H2.11494C1.56782 8.72222 1.06766 9.03134 0.822988 9.52069L0.5 10.1667M2.52222 10.8889H2.11494C1.56782 10.8889 1.06766 11.198 0.822988 11.6874L0.5 12.3333M4.47222 13.0556H3.55938C3.01227 13.0556 2.51211 13.3647 2.26743 13.854L1.94444 14.5M10.9722 8.72222H11.8851C12.4322 8.72222 12.9323 9.03134 13.177 9.52069L13.5 10.1667M11.4778 10.8889H11.8851C12.4322 10.8889 12.9323 11.198 13.177 11.6874L13.5 12.3333M9.52778 13.0556H10.4406C10.9877 13.0556 11.4879 13.3647 11.7326 13.854L12.0556 14.5M12.0556 5.11111V5.57298C12.0556 6.21011 11.8449 6.82936 11.4565 7.33437L10.6111 8.43333M12.0556 5.11111L10.5718 5.3584C10.4388 5.38056 10.3043 5.3917 10.1695 5.3917C8.8179 5.3917 7.72222 4.29603 7.72222 2.94444L9.16667 3.66667V1.5L9.31085 1.50354C10.8394 1.57867 12.0556 2.84175 12.0556 4.38889V5.11111ZM4.32086 12.9275L4.92361 13.2812C6.20561 14.0337 7.79439 14.0337 9.07639 13.2812L9.67914 12.9275C10.6183 12.3762 11.2837 11.4568 11.5139 10.3924C11.7006 9.5288 11.1519 8.67739 10.2884 8.49067L10.2367 8.48039L9.4375 8.36111C7.82132 8.12168 6.17868 8.12168 4.5625 8.36111L3.81528 8.47181C2.94131 8.60129 2.33777 9.41475 2.46725 10.2887C2.4724 10.3235 2.47869 10.358 2.48611 10.3924C2.71626 11.4568 3.38166 12.3762 4.32086 12.9275Z" stroke="black" stroke-linecap="round"/>
<path id="Rectangle Copy 3" fill-rule="evenodd" clip-rule="evenodd" d="M5.91602 6.98897V6.91675V6.98897Z" stroke="black" stroke-linecap="round" stroke-linejoin="round"/>
<path id="Rectangle Copy 4" fill-rule="evenodd" clip-rule="evenodd" d="M8.08398 6.98897V6.91675V6.98897Z" stroke="black" stroke-linecap="round" stroke-linejoin="round"/>
</g>
</svg>
