<svg width="14" height="14" viewBox="0 0 14 14" fill="none" xmlns="http://www.w3.org/2000/svg">
<g id="Eggs">
<path id="Combined Shape" fill-rule="evenodd" clip-rule="evenodd" d="M4.725 1.47498C6.14726 1.47498 7.40539 3.14369 8.17107 4.97528C8.73406 4.07091 9.45903 3.39998 10.25 3.39998C12.0449 3.39998 13.5 6.85505 13.5 8.64998C13.5 10.4449 12.0449 11.9 10.25 11.9C9.37065 11.9 8.57288 11.5507 7.98779 10.9834C7.21397 11.9246 6.0396 12.525 4.725 12.525C2.3916 12.525 0.5 10.6334 0.5 8.29998C0.5 7.70602 0.622563 6.97222 0.843778 6.20827L0.944554 5.87933C1.63795 3.7334 3.07041 1.47498 4.725 1.47498ZM4.725 12.525C7.0584 12.525 8.95 10.6334 8.95 8.29998C8.95 7.70602 8.82744 6.97222 8.60622 6.20827L8.50545 5.87933C7.81205 3.7334 6.37959 1.47498 4.725 1.47498C3.07041 1.47498 1.63795 3.7334 0.944554 5.87933L0.843778 6.20827C0.622563 6.97222 0.5 7.70602 0.5 8.29998C0.5 10.6334 2.3916 12.525 4.725 12.525Z" stroke="black" stroke-linecap="round"/>
</g>
</svg>
