<svg width="15" height="12" viewBox="0 0 15 12" fill="none" xmlns="http://www.w3.org/2000/svg">
<g id="Fish">
<path id="Combined Shape" fill-rule="evenodd" clip-rule="evenodd" d="M4.16762 4.20591C7.34186 2.22602 11.5201 3.19423 13.5 6.36847L13.3436 6.60782C12.9672 7.15811 12.5113 7.65026 11.9904 8.06801C9.32759 10.2034 5.54535 10.0005 3.12538 7.73191C2.73738 8.73229 1.73056 9.40729 0.603927 9.32555L0.5 9.31583V9.13951C0.5 8.08259 0.962714 7.11717 1.71246 6.45657C1.01547 5.91578 0.556448 5.08809 0.504857 4.15747L0.5 3.98181V3.4211L0.641821 3.4268C1.70724 3.49587 2.61946 4.14901 3.05008 5.07801C3.38967 4.75005 3.76452 4.45734 4.16762 4.20591ZM8.0518 9.55125L8.14181 9.54687C7.64302 10.0436 7.03158 10.4209 6.33569 10.6252C5.79501 10.7839 5.25083 10.8243 4.72607 10.7608C4.98232 10.2404 5.18105 9.68397 5.31583 9.10427C6.18806 9.44053 7.12129 9.59164 8.0518 9.55125ZM8.7196 3.15279L8.79043 3.2594C7.44964 3.05091 6.04104 3.24218 4.75631 3.87765C4.36371 3.0481 3.83711 2.32497 3.21685 1.73404C3.48447 1.58526 3.77105 1.46374 4.07359 1.37492C5.85924 0.85066 7.68302 1.61732 8.7196 3.15279Z" stroke="black" stroke-linecap="round"/>
<path id="Rectangle Copy 3" fill-rule="evenodd" clip-rule="evenodd" d="M10.4209 5.72638V5.65796V5.72638Z" stroke="black" stroke-linecap="round" stroke-linejoin="round"/>
</g>
</svg>
