<svg width="12" height="12" viewBox="0 0 12 12" fill="none" xmlns="http://www.w3.org/2000/svg">
<g id="Gluten">
<path id="Combined Shape" fill-rule="evenodd" clip-rule="evenodd" d="M1.66546 5.67317C2.95264 6.63857 3.21347 8.46463 2.24806 9.75179C2.11557 9.92844 1.96352 10.0893 1.79495 10.2314L1.66546 10.3344C0.378291 9.36898 0.117453 7.54292 1.08286 6.25577C1.21536 6.07911 1.3674 5.91824 1.53598 5.77616L1.66546 5.67317ZM3.99602 3.34257C5.28319 4.30797 5.54403 6.13403 4.57862 7.42119C4.44612 7.59784 4.29408 7.75871 4.1255 7.90079L3.99602 8.00378C2.70884 7.03838 2.44801 5.21232 3.41342 3.92516C3.54591 3.74851 3.69796 3.58764 3.86653 3.44556L3.99602 3.34257ZM6.32657 1.01196C7.61374 1.97737 7.87458 3.80342 6.90917 5.09058C6.77667 5.26723 6.62463 5.42811 6.45605 5.57019L6.32657 5.67317C5.0394 4.70777 4.77856 2.88171 5.74397 1.59456C5.87647 1.4179 6.02851 1.25703 6.19708 1.11495L6.32657 1.01196ZM10.9877 5.67317C10.0224 6.96029 8.1964 7.22117 6.90927 6.25586C6.73258 6.12335 6.57167 5.97129 6.42957 5.80268L6.32657 5.67317C7.29188 4.38606 9.11785 4.12518 10.405 5.09048C10.5817 5.22299 10.7426 5.37506 10.8847 5.54367L10.9877 5.67317ZM8.65712 8.00378C7.69181 9.29089 5.86584 9.55177 4.57871 8.58647C4.40202 8.45396 4.24112 8.30189 4.09902 8.13329L3.99602 8.00378C4.96133 6.71666 6.7873 6.45579 8.07442 7.42109C8.25111 7.5536 8.41202 7.70566 8.55412 7.87427L8.65712 8.00378ZM6.32657 10.3344C5.36126 11.6215 3.53529 11.8824 2.24816 10.9171C2.07147 10.7846 1.91057 10.6325 1.76847 10.4639L1.66546 10.3344C2.63078 9.04727 4.45674 8.78639 5.74387 9.75169C5.92056 9.8842 6.08146 10.0363 6.22357 10.2049L6.32657 10.3344ZM11.4703 0.529281C11.6979 2.12213 10.5912 3.59773 8.99842 3.82526C8.77981 3.85649 8.55853 3.86273 8.33884 3.84399L8.17443 3.82513C7.9469 2.2324 9.05363 0.756801 10.6464 0.529277C10.9196 0.49024 11.1971 0.490241 11.4703 0.529281Z" stroke="black" stroke-linecap="round"/>
</g>
</svg>
