<svg width="14" height="16" viewBox="0 0 14 16" fill="none" xmlns="http://www.w3.org/2000/svg">
<g id="Group">
<path id="Vector" d="M2.99195 1.26097L1.34419 2.90837C1.23537 3.01642 1.14894 3.14489 1.08988 3.28641C1.03081 3.42794 1.00027 3.57973 1 3.73309C0.999734 3.88644 1.02975 4.03834 1.08832 4.18007C1.14689 4.3218 1.23286 4.45057 1.34131 4.559C1.44976 4.66743 1.57855 4.75338 1.7203 4.81192C1.86204 4.87046 2.01395 4.90044 2.1673 4.90014C2.32066 4.89984 2.47244 4.86926 2.61396 4.81017C2.75547 4.75107 2.88392 4.66462 2.99195 4.55577L4.63935 2.90802C4.85235 2.6884 4.97042 2.39382 4.96805 2.08788C4.96568 1.78195 4.84306 1.48922 4.62668 1.27294C4.4103 1.05665 4.11752 0.934155 3.81159 0.931916C3.50565 0.929677 3.21147 1.04787 2.99195 1.26097ZM6.56149 4.28138L4.36495 6.47791C4.25676 6.5861 4.17094 6.71455 4.11238 6.85591C4.05383 6.99727 4.02369 7.14878 4.02369 7.30179C4.02369 7.45479 4.05383 7.6063 4.11238 7.74766C4.17094 7.88902 4.25676 8.01747 4.36495 8.12566C4.47315 8.23385 4.60159 8.31968 4.74295 8.37823C4.88431 8.43678 5.03582 8.46692 5.18883 8.46692C5.34184 8.46692 5.49335 8.43678 5.63471 8.37823C5.77607 8.31968 5.90451 8.23385 6.01271 8.12566L8.20924 5.92878C8.42774 5.71027 8.5505 5.41391 8.5505 5.1049C8.5505 4.79589 8.42774 4.49953 8.20924 4.28103C7.99073 4.06252 7.69438 3.93977 7.38536 3.93977C7.07635 3.93977 6.77999 4.06287 6.56149 4.28138Z" stroke="black"/>
<path id="Vector_2" d="M7.93446 6.20319L12.7723 11.041C13.1335 11.4022 13.0572 12.0634 12.6026 12.5187C12.1476 12.9737 11.4861 13.0496 11.1249 12.6888L6.28706 7.85094M5.73793 1.81012L1.894 5.65405C1.67549 5.87256 1.55273 6.16892 1.55273 6.47793C1.55273 6.78694 1.67549 7.0833 1.894 7.30181C2.1125 7.52031 2.40886 7.64307 2.71787 7.64307C3.02688 7.64307 3.32324 7.52031 3.54175 7.30181L7.38533 3.45752C7.49418 3.3495 7.58063 3.22104 7.63973 3.07953C7.69882 2.93802 7.7294 2.78623 7.7297 2.63288C7.73 2.47952 7.70002 2.32762 7.64148 2.18587C7.58294 2.04413 7.49699 1.91534 7.38856 1.80689C7.28013 1.69844 7.15136 1.61246 7.00963 1.55389C6.8679 1.49532 6.716 1.46531 6.56265 1.46558C6.40929 1.46585 6.2575 1.49639 6.11597 1.55545C5.97445 1.61452 5.84598 1.70129 5.73793 1.81012Z" stroke="black"/>
<path id="Vector_3" d="M2.7249 7.69006C3.2252 9.24904 3.14205 10.4007 2.47546 11.1451C1.47521 12.262 1.6305 15.0681 3.88992 15.0681C6.14934 15.0681 6.81301 12.262 4.89895 11.2772" stroke="black" stroke-linecap="round"/>
</g>
</svg>
