<svg width="8" height="16" viewBox="0 0 8 16" fill="none" xmlns="http://www.w3.org/2000/svg">
<g id="Milk">
<path id="Combined Shape" d="M2.05556 1H5.94444M0.739209 6.84232L1.46156 5.69511C2.09502 4.68907 2.50219 3.55733 2.65486 2.37831L2.83333 1H5.16667L5.32803 2.29089C5.47791 3.48996 5.88733 4.64195 6.52778 5.66667L7.26355 6.84391C7.41807 7.09113 7.5 7.37681 7.5 7.66835V13.4444C7.5 14.3036 6.80355 15 5.94444 15H2.05556C1.19645 15 0.5 14.3036 0.5 13.4444V7.67116C0.5 7.37786 0.582925 7.09052 0.739209 6.84232ZM0.5 9.55556L0.988672 9.71845C2.14396 10.1035 3.41466 9.89733 4.38889 9.16667L4.55311 9.0435C5.35844 8.4395 6.42078 8.31419 7.33945 8.70369L7.5 8.77778V13.4444C7.5 14.3036 6.80355 15 5.94444 15H2.05556C1.19645 15 0.5 14.3036 0.5 13.4444V9.55556Z" stroke="black" stroke-linecap="round"/>
</g>
</svg>
