<svg width="10" height="16" viewBox="0 0 10 16" fill="none" xmlns="http://www.w3.org/2000/svg">
<path id="Vector" d="M5.50024 0.688965L5.08461 2.06459L6.50961 2.49334L9.33774 3.3424L9.75024 1.96709L5.50024 0.688965ZM5.40336 2.74834L4.56899 5.5174L4.39711 5.54865C4.39711 5.54865 3.86899 5.63928 3.30961 5.84553C3.03149 5.94865 2.74711 6.0799 2.53149 6.22678C2.31274 6.37678 2.17524 6.5424 2.12836 6.6924L0.256488 12.9143C0.237738 12.9737 0.253363 13.0612 0.387738 13.2205C0.525238 13.3799 0.768989 13.5705 1.08461 13.7612C1.71899 14.1362 2.63461 14.5112 3.57524 14.7924C4.51586 15.0768 5.48774 15.2705 6.22211 15.3049C6.59086 15.3237 6.90024 15.2987 7.10024 15.2393C7.30336 15.183 7.36274 15.1174 7.38149 15.058L9.25336 8.83303C9.29711 8.68303 9.27211 8.47053 9.17211 8.22678C9.07524 7.9799 8.90961 7.71428 8.73461 7.47678C8.38149 6.99865 7.98774 6.6299 7.98774 6.6299L7.86274 6.50803L8.69399 3.73615L5.40336 2.74834ZM6.58149 3.61115H6.62211C6.71899 3.61115 6.81586 3.62678 6.91586 3.65803C7.62836 3.87053 7.93461 4.71428 7.70024 5.4924C7.46586 6.27053 6.74086 6.80178 6.03149 6.58928C5.32211 6.37678 5.01274 5.53303 5.24711 4.7549C5.44399 4.09865 5.98774 3.6174 6.58149 3.61115ZM6.61899 4.17365C6.29711 4.1674 5.92836 4.43928 5.78461 4.9174C5.62211 5.46115 5.84711 5.94553 6.19399 6.05178C6.54086 6.1549 6.99711 5.87365 7.16274 5.3299C7.32524 4.78615 7.10024 4.30178 6.75336 4.19553C6.70961 4.18303 6.66274 4.17678 6.61899 4.17365ZM4.29711 7.12365C4.33461 7.12365 4.37211 7.12365 4.40961 7.12678C4.85649 7.1424 5.33774 7.23303 5.80649 7.37365C6.43461 7.56115 7.02836 7.83928 7.46586 8.18615C7.68461 8.36115 7.86586 8.55178 7.98149 8.77678C8.10024 8.99865 8.14399 9.26428 8.06586 9.52053L8.06274 9.53303L6.04086 14.4268L1.72211 13.1299L2.73461 7.94553L2.73774 7.9299L2.74086 7.9174C2.81586 7.66428 3.00024 7.4674 3.21899 7.3424C3.44086 7.22053 3.69711 7.16115 3.97524 7.13615C4.08149 7.12678 4.18774 7.12365 4.29711 7.12365Z" fill="black"/>
</svg>
