<svg width="12" height="16" viewBox="0 0 12 16" fill="none" xmlns="http://www.w3.org/2000/svg">
<g id="Nuts">
<path id="Combined Shape" fill-rule="evenodd" clip-rule="evenodd" d="M6.04071 14.5137C9.10597 13.4919 10.6386 11.7865 10.6386 9.39741V7.61685H1.44281V9.39741C1.44281 11.7865 2.97544 13.4919 6.04071 14.5137ZM2.59229 3.78527L4.7186 3.17776C5.04758 3.08376 5.27439 2.78307 5.27439 2.44093V1.48633H6.80702L6.46793 2.16451C6.27866 2.54306 6.43209 3.00336 6.81064 3.19263C6.86065 3.21764 6.91324 3.23709 6.96748 3.25065L9.10597 3.78527C10.7476 4.19567 11.7651 5.82117 11.4394 7.46293L11.4049 7.61685H0.676497L0.586718 7.25774C0.209486 5.74881 1.09676 4.21257 2.59229 3.78527Z" stroke="black" stroke-linecap="square"/>
</g>
</svg>
