<svg width="15" height="15" viewBox="0 0 15 15" fill="none" xmlns="http://www.w3.org/2000/svg">
<g id="Orange">
<path id="Combined Shape" d="M5.28947 4.23684C7.93463 4.23684 10.0789 6.38116 10.0789 9.02632C10.0789 9.28261 10.0588 9.53421 10.02 9.77961L7.83182 7.59208C7.10651 8.31739 6.6579 9.31939 6.6579 10.4262C6.6579 11.478 7.06307 12.4352 7.72587 13.1502C7.01232 13.5732 6.17923 13.8158 5.28947 13.8158C2.64432 13.8158 0.5 11.6715 0.5 9.02632C0.5 6.38116 2.64432 4.23684 5.28947 4.23684ZM5.28947 4.23684L3.5185 3.88265C2.55905 3.69076 1.86842 2.84833 1.86842 1.86988V1.5L3.6394 1.8542C4.59885 2.04609 5.28947 2.88852 5.28947 3.86697V4.92105M5.28947 4.23684V4.92105M5.28947 4.92105C5.28947 4.08239 5.76331 3.31571 6.51343 2.94066L6.6579 2.86842M8.70384 8.52992L8.66864 8.49472C8.40713 8.23321 8.12819 7.95427 7.83182 7.6579C7.10651 8.3832 6.6579 9.38521 6.6579 10.492C6.6579 10.7596 6.68413 11.0211 6.73416 11.2741C6.78572 11.5347 6.86255 11.7863 6.962 12.0261C7.16514 12.516 7.46263 12.9569 7.83182 13.3261C8.201 13.6953 8.64187 13.9928 9.13176 14.1959C9.37158 14.2953 9.62316 14.3722 9.88382 14.4237C10.1368 14.4738 10.3983 14.5 10.6659 14.5C11.7727 14.5 12.7747 14.0514 13.5 13.3261C13.2036 13.0297 12.9247 12.7508 12.6632 12.4893L12.628 12.4541M8.70384 8.52992C8.20171 9.03206 7.89113 9.72575 7.89113 10.492M8.70384 8.52992L8.8615 8.68758C8.9247 8.75078 8.98681 8.81289 9.04783 8.87391L9.40086 9.22694C9.45752 9.2836 9.51309 9.33917 9.56757 9.39365L10.3031 10.1291C10.4338 10.2599 10.5548 10.3808 10.6659 10.492M7.89113 10.492C7.89113 12.0245 9.13344 13.2668 10.6659 13.2668M7.89113 10.492C7.89113 10.6773 7.90929 10.8583 7.94392 11.0334L10.6659 10.492M10.6659 13.2668C11.4321 13.2668 12.1258 12.9562 12.628 12.4541M10.6659 13.2668C10.2896 13.2668 9.93083 13.1919 9.60363 13.0562L10.6659 10.492M12.628 12.4541L12.4703 12.2964C12.4071 12.2332 12.345 12.1711 12.284 12.1101L11.931 11.757C11.8743 11.7004 11.8187 11.6448 11.7642 11.5903L11.0288 10.8548C10.898 10.7241 10.777 10.6031 10.6659 10.492" stroke="black" stroke-linecap="round"/>
</g>
</svg>
