<svg width="14" height="14" viewBox="0 0 14 14" fill="none" xmlns="http://www.w3.org/2000/svg">
<g id="Sesame">
<path id="Combined Shape" fill-rule="evenodd" clip-rule="evenodd" d="M11.8313 9.44528C11.9534 9.32323 12.1512 9.32323 12.2733 9.44528C12.3954 9.56734 12.3954 9.76523 12.2733 9.88728L12.0523 10.1083C11.7576 11.5816 11.3893 12.5393 10.9473 12.9813C10.2843 13.6443 9.34759 13.5915 8.73732 12.9813C8.12705 12.371 8.07432 11.4343 8.73732 10.7713C9.17932 10.3293 10.137 9.96095 11.6103 9.66628L11.8313 9.44528ZM0.980535 9.32041C1.06684 9.17093 1.25799 9.11971 1.40747 9.20601L1.67814 9.36228C3.17753 9.26558 4.19789 9.3735 4.73922 9.68604C5.55122 10.1549 5.74274 11.0733 5.31121 11.8207C4.87968 12.5682 3.98853 12.8615 3.17653 12.3927C2.63519 12.0802 2.03155 11.2505 1.3656 9.90362L1.09493 9.74735C0.945447 9.66104 0.894229 9.4699 0.980535 9.32041ZM7.31307 2.96699C7.48568 2.96699 7.62561 3.10691 7.62561 3.27952V3.59206C8.45905 4.84222 8.87577 5.77984 8.87577 6.40492C8.87577 7.34254 8.17612 7.96762 7.31307 7.96762C6.45001 7.96762 5.75037 7.34254 5.75037 6.40492C5.75037 5.77984 6.16709 4.84222 7.00053 3.59206V3.27952C7.00053 3.10691 7.14046 2.96699 7.31307 2.96699ZM11.5251 2.14504C12.3587 1.92167 13.1963 2.34437 13.439 3.25004C13.6007 3.85382 13.4409 4.86734 12.9594 6.29061L13.0403 6.5925C13.085 6.75923 12.986 6.93061 12.8193 6.97528C12.6526 7.01996 12.4812 6.92101 12.4365 6.75428L12.3556 6.45239C11.227 5.46054 10.5818 4.66273 10.4201 4.05895C10.1774 3.15328 10.6914 2.36842 11.5251 2.14504ZM2.89708 0.541696L2.95956 0.551865C3.12629 0.59654 3.22524 0.767917 3.18056 0.934646L3.09967 1.23654C3.58115 2.65981 3.74099 3.67333 3.57921 4.27711C3.33654 5.18278 2.49895 5.60548 1.6653 5.38211C0.831658 5.15873 0.317636 4.37387 0.56031 3.4682C0.722092 2.86442 1.36729 2.0666 2.49589 1.07475L2.57678 0.772864C2.62146 0.606134 2.79283 0.50719 2.95956 0.551865L2.89708 0.541696Z" stroke="black" stroke-linecap="round"/>
</g>
</svg>
