<svg width="16" height="14" viewBox="0 0 16 14" fill="none" xmlns="http://www.w3.org/2000/svg">
<g id="Abalone">
<path id="Combined Shape" d="M13.8227 4.66118L14.1541 4.78202C15.2149 5.16777 15.7621 6.34045 15.3764 7.40127C15.2855 7.65115 15.1468 7.8809 14.9679 8.07764L14.8337 8.22528C13.5643 9.6216 12.0891 10.8158 10.4591 11.7667L8.04104 13.1772C8.01551 13.1921 7.98395 13.1921 7.95842 13.1772L5.54037 11.7667C3.91036 10.8158 2.43514 9.6216 1.16576 8.22528L1.03154 8.07764C0.272235 7.24241 0.333788 5.94978 1.16902 5.19049C1.36576 5.01163 1.59551 4.87288 1.84539 4.78202L2.17726 4.66017M5.28958 9.58764L2.66895 6.09361C1.85399 5.00699 2.07421 3.46546 3.16082 2.65051C3.37229 2.4919 3.60795 2.36843 3.85872 2.28484L4.31069 2.13419C4.62302 2.03007 4.93867 1.93954 5.25676 1.86259L5.40612 1.82743C5.13853 2.3214 5.06051 2.91403 5.22417 3.48686M5.22417 3.48686L6.73175 8.76378M5.22417 3.48686C4.93217 2.46487 5.40948 1.37984 6.36015 0.904507C7.39229 0.388439 8.60717 0.388439 9.6393 0.904507C10.59 1.37984 11.0673 2.46487 10.7753 3.48686M9.26736 8.76366L10.7753 3.48686M10.7753 3.48686C10.9389 2.91435 10.861 2.32207 10.5938 1.82826C10.9623 1.91163 11.3277 2.01384 11.6888 2.13419L12.1407 2.28484C13.4293 2.71436 14.1257 4.10714 13.6962 5.39571C13.6126 5.64648 13.4891 5.88214 13.3305 6.09361L10.7094 9.58723" stroke="black" stroke-linecap="round"/>
<path id="Rectangle 2" fill-rule="evenodd" clip-rule="evenodd" d="M12.0989 10.6903L12.099 12.253C12.099 12.9321 11.5485 13.4827 10.8694 13.4827H5.13085C4.45172 13.4827 3.90117 12.9321 3.90117 12.253L3.90039 10.6896C4.42707 11.0768 4.97457 11.4365 5.54075 11.7667L7.9588 13.1773C7.98433 13.1922 8.01589 13.1922 8.04141 13.1773L10.4595 11.7667C11.0253 11.4367 11.5725 11.0773 12.0989 10.6903Z" stroke="black" stroke-linecap="round"/>
</g>
</svg>
