<svg width="9" height="16" viewBox="0 0 9 16" fill="none" xmlns="http://www.w3.org/2000/svg">
<g id="Soya">
<path id="Combined Shape" fill-rule="evenodd" clip-rule="evenodd" d="M0 0.926025H3.78702C4.46129 0.926025 5.10793 1.19388 5.58471 1.67065C6.06149 2.14743 6.32934 2.79408 6.32934 3.46835V3.53222C6.32934 4.25724 6.56449 4.96271 6.99951 5.54272L7.44628 6.13842C8.12167 7.03894 8.18459 8.25873 7.60545 9.22396L7.09556 10.0738C6.59418 10.9094 6.32934 11.8656 6.32934 12.8401C6.32934 13.6946 5.70099 14.4191 4.85505 14.5399L1.11694 15.074V12.4039C1.11694 11.7858 1.34201 11.1909 1.74676 10.7288L1.87282 10.5949C2.31879 10.149 2.46029 9.4822 2.23388 8.89355L2.20907 8.82902C2.00629 8.30181 1.99521 7.72202 2.17441 7.19004L2.23388 7.03198C2.45917 6.4913 2.33589 5.86811 1.92171 5.45393L1.86157 5.39379C1.38479 4.91702 1.11694 4.27037 1.11694 3.5961V2.04297C1.11694 1.4261 0.61687 0.926025 0 0.926025ZM3.72314 13.5847C4.34001 13.5847 4.84008 13.0846 4.84008 12.4678C4.84008 11.8509 4.34001 11.3508 3.72314 11.3508C3.10627 11.3508 2.6062 11.8509 2.6062 12.4678C2.6062 13.0846 3.10627 13.5847 3.72314 13.5847ZM4.84008 9.48925C5.66258 9.48925 6.32934 8.82249 6.32934 7.99999C6.32934 7.1775 5.66258 6.51074 4.84008 6.51074C4.01759 6.51074 3.35083 7.1775 3.35083 7.99999C3.35083 8.82249 4.01759 9.48925 4.84008 9.48925ZM3.72314 5.02148C4.34001 5.02148 4.84008 4.52141 4.84008 3.90454C4.84008 3.28767 4.34001 2.7876 3.72314 2.7876C3.10627 2.7876 2.6062 3.28767 2.6062 3.90454C2.6062 4.52141 3.10627 5.02148 3.72314 5.02148Z" stroke="black" stroke-linecap="round"/>
</g>
</svg>
