<svg xmlns="http://www.w3.org/2000/svg" version="1.1" xmlns:xlink="http://www.w3.org/1999/xlink" xmlns:svgjs="http://svgjs.dev/svgjs" width="1000" height="1000"><g clip-path="url(#SvgjsClipPath1075)"><rect width="1000" height="1000" fill="#313131"></rect><g transform="matrix(3.2,0,0,3.2,100,100)"><svg xmlns="http://www.w3.org/2000/svg" version="1.1" xmlns:xlink="http://www.w3.org/1999/xlink" xmlns:svgjs="http://svgjs.dev/svgjs" width="250" height="250"><svg width="250" height="250" viewBox="0 0 250 250" fill="none" xmlns="http://www.w3.org/2000/svg">
<g clip-path="url(#clip0_59_9834)">
<path d="M125 230C182.99 230 230 182.99 230 125C230 67.0101 182.99 20 125 20C67.0101 20 20 67.0101 20 125C20 182.99 67.0101 230 125 230Z" stroke="#FCB700" stroke-width="40"></path>
<path d="M125 155C141.569 155 155 141.569 155 125C155 108.431 141.569 95 125 95C108.431 95 95 108.431 95 125C95 141.569 108.431 155 125 155Z" fill="white"></path>
</g>
<defs>
<clipPath id="clip0_59_9834">
<rect width="250" height="250" fill="white"></rect>
</clipPath>
<clipPath id="SvgjsClipPath1075"><rect width="1000" height="1000" x="0" y="0" rx="500" ry="500"></rect></clipPath></defs>
</svg></svg></g></g></svg>