<svg width="40" height="40" viewBox="0 0 40 40" fill="none" xmlns="http://www.w3.org/2000/svg">
<g id="Icon / Instagram">
<path id="Vector" fill-rule="evenodd" clip-rule="evenodd" d="M26.6667 5.40454H13.3333C8.73097 5.40454 5 9.13551 5 13.7379V27.0712C5 31.6735 8.73097 35.4045 13.3333 35.4045H26.6667C31.269 35.4045 35 31.6735 35 27.0712V13.7379C35 9.13551 31.269 5.40454 26.6667 5.40454ZM32.0833 27.0712C32.0742 30.0589 29.6543 32.4787 26.6667 32.4879H13.3333C10.3456 32.4787 7.92582 30.0589 7.91667 27.0712V13.7379C7.92582 10.7501 10.3456 8.33036 13.3333 8.32121H26.6667C29.6543 8.33036 32.0742 10.7501 32.0833 13.7379V27.0712ZM27.9167 14.1545C28.8372 14.1545 29.5833 13.4083 29.5833 12.4879C29.5833 11.5674 28.8372 10.8212 27.9167 10.8212C26.9962 10.8212 26.25 11.5674 26.25 12.4879C26.25 13.4083 26.9962 14.1545 27.9167 14.1545ZM20 12.9045C15.8579 12.9045 12.5 16.2624 12.5 20.4045C12.5 24.5467 15.8579 27.9045 20 27.9045C24.1422 27.9045 27.5 24.5467 27.5 20.4045C27.5045 18.414 26.7157 16.5038 25.3082 15.0963C23.9007 13.6889 21.9905 12.9001 20 12.9045ZM15.4167 20.4045C15.4167 22.9359 17.4687 24.9879 20 24.9879C22.5313 24.9879 24.5833 22.9359 24.5833 20.4045C24.5833 17.8732 22.5313 15.8212 20 15.8212C17.4687 15.8212 15.4167 17.8732 15.4167 20.4045Z" fill="#FCB700"/>
</g>
</svg>
